<svg width="24" height="24" viewBox="0 0 15 14" fill="none" xmlns="http://www.w3.org/2000/svg">
<g id="closed">
<path id="Fill 1" fill-rule="evenodd" clip-rule="evenodd" d="M3.52737 1.96501C4.00737 1.78701 4.95437 1.89601 5.20437 2.43801C5.41737 2.90001 5.60037 3.67901 5.61037 3.51301C5.63437 3.14401 5.58637 2.34601 5.74737 1.92901C5.86437 1.62501 6.09437 1.33901 6.43337 1.23801C6.71837 1.15201 7.05337 1.12201 7.34937 1.18301C7.66237 1.24701 7.99137 1.47001 8.11437 1.68201C8.47637 2.30501 8.48237 3.58101 8.49937 3.51301C8.56337 3.24101 8.56937 2.28401 8.78237 1.92901C8.92337 1.69401 9.27937 1.48401 9.46937 1.45001C9.76337 1.39801 10.1254 1.38201 10.4334 1.44201C10.6824 1.49101 11.0194 1.78601 11.1104 1.92901C11.3294 2.27301 11.4524 3.24501 11.4894 3.58701C11.5054 3.72801 11.5634 3.19401 11.7824 2.85101C12.1884 2.21201 13.6264 2.08801 13.6804 3.49001C13.7064 4.14401 13.7004 4.11401 13.7004 4.55401C13.7004 5.07001 13.6884 5.38201 13.6604 5.75601C13.6304 6.15501 13.5444 7.06001 13.4194 7.49801C13.3334 7.79901 13.0484 8.47601 12.7664 8.88201C12.7664 8.88201 11.6924 10.132 11.5754 10.694C11.4584 11.257 11.4974 11.261 11.4734 11.659C11.4504 12.058 11.5944 12.582 11.5944 12.582C11.5944 12.582 10.7934 12.686 10.3604 12.616C9.96937 12.554 9.48537 11.776 9.36037 11.538C9.18837 11.21 8.82137 11.273 8.67837 11.515C8.45437 11.898 7.96937 12.585 7.62837 12.628C6.95937 12.712 5.57337 12.658 4.48837 12.648C4.48837 12.648 4.67337 11.637 4.26137 11.29C3.95637 11.03 3.43137 10.506 3.11737 10.23L2.28537 9.30901C2.00237 8.94901 1.28337 8.38001 1.04237 7.32401C0.829372 6.38801 0.850372 5.92901 1.07937 5.55401C1.31137 5.17301 1.74937 4.96501 1.93337 4.92901C2.14137 4.88701 2.62537 4.89001 2.80837 4.99101C3.03137 5.11401 3.12137 5.15001 3.29637 5.38201C3.52637 5.68901 3.60837 5.83801 3.50937 5.50301C3.43337 5.24101 3.18737 4.90801 3.07537 4.53301C2.96637 4.17201 2.67437 3.59001 2.69537 3.00701C2.70337 2.78601 2.79837 2.23601 3.52737 1.96501Z" fill="white"/>
<path id="Vector" d="M6.4711 13.0482C6.0911 13.0482 5.6911 13.0382 5.2911 13.0382L4.4911 13.0282C4.3811 13.0282 4.2811 12.9782 4.2011 12.8882C4.1311 12.8082 4.1011 12.6882 4.1211 12.5782C4.1911 12.1982 4.1611 11.6982 4.0211 11.5782C3.8511 11.4282 3.6111 11.2082 3.3811 10.9882C3.1911 10.8082 3.0111 10.6382 2.8711 10.5082L2.0111 9.55818C1.9411 9.47818 1.8711 9.39818 1.7911 9.30818C1.4311 8.92818 0.891097 8.33818 0.681097 7.40818C0.451097 6.38818 0.471097 5.83818 0.761097 5.35818C1.0511 4.87818 1.5911 4.61818 1.8611 4.55818C2.0311 4.52818 2.3911 4.50818 2.6911 4.55818C2.6711 4.50818 2.6511 4.43818 2.6211 4.36818C2.4911 4.00818 2.3011 3.50818 2.3211 2.99818C2.3311 2.75818 2.4311 1.97818 3.4011 1.61818C3.9311 1.41818 4.8611 1.49818 5.3411 1.98818C5.3611 1.91818 5.3811 1.85818 5.4011 1.79818C5.5711 1.33818 5.9111 1.00818 6.3311 0.878177C6.7011 0.768177 7.0911 0.748177 7.4311 0.818177C7.8411 0.898177 8.2611 1.18818 8.4411 1.49818C8.4711 1.54818 8.4911 1.59818 8.5211 1.64818C8.7411 1.36818 9.1311 1.12818 9.4011 1.07818C9.7811 1.00818 10.1811 1.00818 10.5011 1.06818C10.8911 1.14818 11.3011 1.52818 11.4211 1.71818C11.5211 1.87818 11.6011 2.12818 11.6711 2.38818C12.0311 2.05818 12.5711 1.91818 13.0611 2.04818C13.3411 2.12818 14.0111 2.41818 14.0511 3.45818C14.0711 4.00818 14.0711 4.07818 14.0711 4.33818V4.53818C14.0711 5.06818 14.0611 5.38818 14.0311 5.76818C14.0111 5.97818 13.9311 7.05818 13.7811 7.58818C13.6811 7.92818 13.3811 8.63818 13.0811 9.08818C12.6411 9.60818 12.0111 10.4382 11.9511 10.7582C11.8711 11.1382 11.8711 11.2282 11.8711 11.3982C11.8711 11.4682 11.8711 11.5582 11.8611 11.6682C11.8411 11.9382 11.9311 12.3382 11.9711 12.4682C12.0011 12.5682 11.9811 12.6882 11.9211 12.7782C11.8611 12.8682 11.7611 12.9282 11.6611 12.9382C11.5711 12.9482 10.7911 13.0482 10.3211 12.9682C9.6811 12.8682 9.1111 11.8182 9.0511 11.6982C8.8111 12.0582 8.2511 12.9182 7.7011 12.9882C7.3711 13.0382 6.9511 13.0482 6.4711 13.0482ZM4.9011 12.2782L5.3011 12.2882C6.1811 12.3082 7.1011 12.3182 7.5811 12.2582C7.6911 12.2282 8.0511 11.8582 8.3511 11.3282C8.5011 11.0782 8.7111 10.9382 9.0411 10.9382C9.3211 10.9482 9.5511 11.0982 9.6911 11.3682C9.9011 11.7682 10.2711 12.2182 10.4211 12.2482C10.6011 12.2782 10.8911 12.2682 11.1411 12.2482C11.1111 12.0582 11.0911 11.8382 11.1011 11.6382L11.1111 11.3982C11.1111 11.1782 11.1211 11.0482 11.2111 10.6182C11.3411 9.99818 12.2911 8.85818 12.4811 8.63818C12.7011 8.31818 12.9811 7.67818 13.0611 7.39818C13.1711 7.01818 13.2511 6.16818 13.2911 5.72818C13.3211 5.35818 13.3311 5.05818 13.3311 4.55818V4.35818C13.3311 4.10818 13.3311 4.03818 13.3111 3.50818C13.3011 3.22818 13.2211 2.88818 12.8811 2.79818C12.6011 2.72818 12.2411 2.84818 12.1011 3.05818C12.0011 3.21818 11.9311 3.46818 11.9011 3.59818C11.8711 3.70818 11.7911 4.01818 11.4711 3.98818C11.2911 3.97818 11.1411 3.80818 11.1211 3.62818C11.0411 2.91818 10.9111 2.30818 10.8011 2.12818C10.7411 2.03818 10.4911 1.82818 10.3711 1.80818C10.1311 1.76818 9.8211 1.76818 9.5311 1.81818C9.4411 1.83818 9.1811 1.98818 9.1011 2.11818C9.0011 2.28818 8.9511 2.82818 8.9211 3.11818C8.9111 3.32818 8.8911 3.50818 8.8611 3.59818C8.8211 3.77818 8.6711 3.89818 8.4711 3.88818C8.1411 3.86818 8.1211 3.54818 8.1111 3.42818C8.0611 2.67818 7.9511 2.14818 7.7911 1.86818C7.7311 1.76818 7.5111 1.59818 7.2711 1.54818C7.0611 1.50818 6.7911 1.52818 6.5411 1.59818C6.2711 1.67818 6.1411 1.94818 6.1011 2.06818C6.0111 2.30818 6.0011 2.81818 6.0011 3.15818C6.0011 3.30818 6.0011 3.43818 5.9911 3.53818C5.9711 3.71818 5.8311 3.88818 5.6511 3.90818C5.3211 3.94818 5.2411 3.68818 5.1311 3.33818C5.0611 3.11818 4.9711 2.81818 4.8611 2.59818C4.7211 2.28818 3.9911 2.18818 3.6611 2.31818C3.1611 2.49818 3.0811 2.83818 3.0711 3.01818C3.0611 3.38818 3.2011 3.78818 3.3211 4.10818C3.3611 4.22818 3.4011 4.33818 3.4311 4.42818C3.4911 4.60818 3.5811 4.77818 3.6611 4.92818C3.7511 5.09818 3.8311 5.25818 3.8711 5.39818C3.9211 5.55818 4.0111 5.87818 3.7111 6.02818C3.4111 6.17818 3.2311 5.91818 3.0911 5.73818L3.0011 5.60818C2.8911 5.45818 2.8511 5.44818 2.6811 5.34818C2.5411 5.27818 2.1711 5.26818 2.0111 5.29818C1.9211 5.31818 1.5711 5.45818 1.4011 5.74818C1.2511 5.98818 1.2011 6.32818 1.4111 7.23818C1.5811 7.97818 2.0211 8.45818 2.3411 8.80818C2.4311 8.90818 2.5211 8.99818 2.5811 9.07818L3.4011 9.97818C3.5211 10.0782 3.7111 10.2582 3.9011 10.4482C4.1211 10.6582 4.3411 10.8682 4.5011 11.0082C4.8711 11.3182 4.9211 11.8782 4.9011 12.2782Z" fill="black"/>
<path id="Stroke 5 (Stroke)" fill-rule="evenodd" clip-rule="evenodd" d="M10.5206 5.82959C10.7277 5.82959 10.8956 5.99748 10.8956 6.20459V9.66359C10.8956 9.8707 10.7277 10.0386 10.5206 10.0386C10.3135 10.0386 10.1456 9.8707 10.1456 9.66359V6.20459C10.1456 5.99748 10.3135 5.82959 10.5206 5.82959Z" fill="black"/>
<path id="Stroke 7 (Stroke)" fill-rule="evenodd" clip-rule="evenodd" d="M8.48729 5.82715C8.69439 5.8262 8.86306 5.99332 8.86401 6.20042L8.88001 9.67342C8.88096 9.88053 8.71385 10.0492 8.50674 10.0501C8.29964 10.0511 8.13097 9.88398 8.13002 9.67688L8.11402 6.20388C8.11306 5.99677 8.28018 5.82811 8.48729 5.82715Z" fill="black"/>
<path id="Stroke 9 (Stroke)" fill-rule="evenodd" clip-rule="evenodd" d="M6.50661 5.85889C6.71372 5.85762 6.88263 6.02449 6.8839 6.23159L6.9049 9.65759C6.90617 9.86469 6.73931 10.0336 6.53221 10.0349C6.32511 10.0361 6.15619 9.86929 6.15492 9.66219L6.13392 6.23619C6.13265 6.02908 6.29951 5.86016 6.50661 5.85889Z" fill="black"/>
</g>
</svg>
