<svg width="24" height="24" viewBox="0 0 24 24" fill="none" xmlns="http://www.w3.org/2000/svg">
<g id="fullscreen">
<path id="Vector" d="M20 9C19.7348 9 19.4804 8.89464 19.2929 8.70711C19.1054 8.51957 19 8.26522 19 8V5H16C15.7348 5 15.4804 4.89464 15.2929 4.70711C15.1054 4.51957 15 4.26522 15 4C15 3.73478 15.1054 3.48043 15.2929 3.29289C15.4804 3.10536 15.7348 3 16 3H20C20.2652 3 20.5196 3.10536 20.7071 3.29289C20.8946 3.48043 21 3.73478 21 4V8C21 8.26522 20.8946 8.51957 20.7071 8.70711C20.5196 8.89464 20.2652 9 20 9Z" fill="#393A3D"/>
<path id="Vector_2" d="M8 21H4C3.73478 21 3.48043 20.8946 3.29289 20.7071C3.10536 20.5196 3 20.2652 3 20V16C3 15.7348 3.10536 15.4804 3.29289 15.2929C3.48043 15.1054 3.73478 15 4 15C4.26522 15 4.51957 15.1054 4.70711 15.2929C4.89464 15.4804 5 15.7348 5 16V19H8C8.26522 19 8.51957 19.1054 8.70711 19.2929C8.89464 19.4804 9 19.7348 9 20C9 20.2652 8.89464 20.5196 8.70711 20.7071C8.51957 20.8946 8.26522 21 8 21Z" fill="#393A3D"/>
<path id="Vector_3" d="M20 21H16C15.7348 21 15.4804 20.8946 15.2929 20.7071C15.1054 20.5196 15 20.2652 15 20C15 19.7348 15.1054 19.4804 15.2929 19.2929C15.4804 19.1054 15.7348 19 16 19H19V16C19 15.7348 19.1054 15.4804 19.2929 15.2929C19.4804 15.1054 19.7348 15 20 15C20.2652 15 20.5196 15.1054 20.7071 15.2929C20.8946 15.4804 21 15.7348 21 16V20C21 20.2652 20.8946 20.5196 20.7071 20.7071C20.5196 20.8946 20.2652 21 20 21Z" fill="#393A3D"/>
<path id="Vector_4" d="M4 9C3.73478 9 3.48043 8.89464 3.29289 8.70711C3.10536 8.51957 3 8.26522 3 8V4C3 3.73478 3.10536 3.48043 3.29289 3.29289C3.48043 3.10536 3.73478 3 4 3H8C8.26522 3 8.51957 3.10536 8.70711 3.29289C8.89464 3.48043 9 3.73478 9 4C9 4.26522 8.89464 4.51957 8.70711 4.70711C8.51957 4.89464 8.26522 5 8 5H5V8C5 8.26522 4.89464 8.51957 4.70711 8.70711C4.51957 8.89464 4.26522 9 4 9Z" fill="#393A3D"/>
</g>
</svg>
