<svg width="24" height="24" viewBox="0 0 24 24" fill="none" xmlns="http://www.w3.org/2000/svg">
<g id="settings">
<g id="Union">
<path fill-rule="evenodd" clip-rule="evenodd" d="M12 8C9.7909 8 8.00004 9.79086 8.00004 12C8.00004 14.2091 9.7909 16 12 16C14.2092 16 16 14.2091 16 12C16 9.79086 14.2092 8 12 8ZM10 12C10 10.8954 10.8955 10 12 10C13.1046 10 14 10.8954 14 12C14 13.1046 13.1046 14 12 14C10.8955 14 10 13.1046 10 12Z" fill="#C9007A"/>
<path fill-rule="evenodd" clip-rule="evenodd" d="M10.9884 1C10.0636 1 9.25946 1.63402 9.04364 2.53325L8.64666 4.18735C7.88129 4.51624 7.17441 4.954 6.54536 5.48083L4.77515 4.95633C3.88848 4.69361 2.93731 5.07305 2.47492 5.87393L1.46332 7.62607C1.00093 8.42695 1.14792 9.4404 1.81877 10.0769L3.50604 11.6778C3.50204 11.7848 3.50003 11.8922 3.50003 12C3.50003 12.2194 3.50836 12.437 3.52475 12.6525L1.8188 14.2712C1.14794 14.9077 1.00096 15.9211 1.46335 16.722L2.47495 18.4741C2.93734 19.275 3.8885 19.6545 4.77517 19.3917L6.86353 18.773C7.40962 19.1877 8.00773 19.5381 8.6466 19.8126L9.04359 21.4667C9.25941 22.366 10.0636 23 10.9884 23H13.0116C13.9363 23 14.7405 22.366 14.9563 21.4667L15.3533 19.8127C15.9923 19.5381 16.5905 19.1877 17.1366 18.7729L19.2253 19.3917C20.1119 19.6545 21.0631 19.275 21.5255 18.4741L22.5371 16.722C22.9995 15.9211 22.8525 14.9077 22.1816 14.2712L20.4753 12.6522C20.4917 12.4368 20.5 12.2193 20.5 12C20.5 11.8923 20.498 11.785 20.494 11.6782L22.1816 10.0769C22.8525 9.4404 22.9995 8.42695 22.5371 7.62607L21.5255 5.87393C21.0631 5.07305 20.1119 4.69361 19.2253 4.95633L17.4548 5.48091C16.8257 4.95404 16.1188 4.51624 15.3534 4.18733L14.9564 2.53325C14.7406 1.63401 13.9364 1 13.0116 1H10.9884ZM10.9884 3L13.0116 3L13.657 5.68922L14.1691 5.87041C15.0514 6.18266 15.8474 6.68073 16.5094 7.31855L16.9288 7.72269L19.7934 6.87393L20.805 8.62607L18.4235 10.8857L18.4701 11.371C18.4899 11.5777 18.5 11.7875 18.5 12C18.5 12.3061 18.4789 12.6067 18.4383 12.9006L18.3678 13.4095L20.805 15.722L19.7934 17.4741L16.6741 16.5499L16.2601 16.9095C15.651 17.4386 14.9433 17.8556 14.169 18.1296L13.657 18.3108L13.0116 21H10.9884L10.3429 18.3108L9.83092 18.1296C9.05676 17.8556 8.34913 17.4386 7.74006 16.9096L7.32603 16.55L4.207 17.4741L3.1954 15.722L5.63229 13.4098L5.56183 12.9009C5.52113 12.6069 5.50003 12.3062 5.50003 12C5.50003 11.7874 5.5102 11.5775 5.53003 11.3707L5.57656 10.8854L3.19537 8.62607L4.20698 6.87393L7.07131 7.72261L7.49076 7.31848C8.15272 6.6807 8.94864 6.18266 9.83097 5.87042L10.343 5.68922L10.9884 3Z" fill="#C9007A"/>
</g>
</g>
</svg>
