<svg width="16" height="16" viewBox="0 0 16 16" fill="none" xmlns="http://www.w3.org/2000/svg">
<g id="heart-fill">
<path id="Union" d="M4.70938 1.33325C3.56238 1.33325 2.43653 1.7193 1.65556 2.65646C0.879059 3.58825 0.534909 4.95535 0.71267 6.73292C1.08067 10.4128 4.30826 13.229 7.65701 15.2382L8.00001 15.444L8.34301 15.2382C10.0406 14.2197 11.6839 13.014 12.9523 11.6143C14.2218 10.2135 15.1448 8.58552 15.33 6.73292C15.5078 4.95535 15.1636 3.58825 14.3872 2.65646C13.6062 1.7193 12.4803 1.33325 11.3333 1.33325C10.1719 1.33325 9.25878 1.72556 8.58948 2.34338C8.36406 2.55146 8.17036 2.78123 8.00544 3.02404C7.84514 2.78332 7.65673 2.55505 7.43673 2.3479C6.77664 1.72633 5.87166 1.33325 4.70938 1.33325Z" fill="#00BB42"/>
</g>
</svg>
