<svg width="24" height="24" viewBox="0 0 24 24" fill="none" xmlns="http://www.w3.org/2000/svg">
<g id="lock">
<path id="Vector" d="M17 10V7C17 5.67392 16.4732 4.40215 15.5355 3.46447C14.5979 2.52678 13.3261 2 12 2C10.6744 2.00159 9.40356 2.52888 8.46622 3.46622C7.52888 4.40356 7.00159 5.67441 7 7V10C6.20435 10 5.44129 10.3161 4.87868 10.8787C4.31607 11.4413 4 12.2044 4 13V19C4 19.7956 4.31607 20.5587 4.87868 21.1213C5.44129 21.6839 6.20435 22 7 22H17C17.7956 22 18.5587 21.6839 19.1213 21.1213C19.6839 20.5587 20 19.7956 20 19V13C20 12.2044 19.6839 11.4413 19.1213 10.8787C18.5587 10.3161 17.7956 10 17 10ZM9 7C9 6.20435 9.31607 5.44129 9.87868 4.87868C10.4413 4.31607 11.2044 4 12 4C12.7956 4 13.5587 4.31607 14.1213 4.87868C14.6839 5.44129 15 6.20435 15 7V10H9V7ZM18 19C18 19.2652 17.8946 19.5196 17.7071 19.7071C17.5196 19.8946 17.2652 20 17 20H7C6.73478 20 6.48043 19.8946 6.29289 19.7071C6.10536 19.5196 6 19.2652 6 19V13C6 12.7348 6.10536 12.4804 6.29289 12.2929C6.48043 12.1054 6.73478 12 7 12H17C17.2652 12 17.5196 12.1054 17.7071 12.2929C17.8946 12.4804 18 12.7348 18 13V19Z" fill="#393A3D"/>
<path id="Vector_2" d="M12 13C11.5604 12.9989 11.1328 13.1431 10.7836 13.4101C10.4345 13.6772 10.1833 14.0521 10.0693 14.4766C9.95521 14.9011 9.98463 15.3514 10.1529 15.7575C10.3213 16.1636 10.619 16.5027 11 16.722V18C11 18.2652 11.1053 18.5196 11.2929 18.7071C11.4804 18.8946 11.7348 19 12 19C12.2652 19 12.5195 18.8946 12.7071 18.7071C12.8946 18.5196 13 18.2652 13 18V16.718C13.3789 16.4978 13.6748 16.1588 13.8417 15.7536C14.0087 15.3483 14.0375 14.8993 13.9236 14.4761C13.8098 14.0528 13.5597 13.6789 13.2119 13.4121C12.8642 13.1452 12.4383 13.0004 12 13Z" fill="#393A3D"/>
</g>
</svg>
