<svg width="24" height="24" viewBox="0 0 24 24" fill="none" xmlns="http://www.w3.org/2000/svg">
<g id="unlock">
<path id="Vector" d="M17 10V6C17 5.34339 16.8707 4.69321 16.6194 4.08658C16.3681 3.47995 15.9998 2.92876 15.5355 2.46447C15.0712 2.00017 14.52 1.63188 13.9134 1.3806C13.3068 1.12933 12.6566 1 12 1C10.6739 1 9.40215 1.52678 8.46447 2.46447C7.52678 3.40215 7 4.67392 7 6C7 6.26522 7.10536 6.51957 7.29289 6.70711C7.48043 6.89464 7.73478 7 8 7C8.26522 7 8.51957 6.89464 8.70711 6.70711C8.89464 6.51957 9 6.26522 9 6C9 5.20435 9.31607 4.44129 9.87868 3.87868C10.4413 3.31607 11.2044 3 12 3C12.7956 3 13.5587 3.31607 14.1213 3.87868C14.6839 4.44129 15 5.20435 15 6V10H7C6.20435 10 5.44129 10.3161 4.87868 10.8787C4.31607 11.4413 4 12.2044 4 13V19C4 19.7956 4.31607 20.5587 4.87868 21.1213C5.44129 21.6839 6.20435 22 7 22H17C17.7956 22 18.5587 21.6839 19.1213 21.1213C19.6839 20.5587 20 19.7956 20 19V13C20 12.2044 19.6839 11.4413 19.1213 10.8787C18.5587 10.3161 17.7956 10 17 10ZM18 19C18 19.2652 17.8946 19.5196 17.7071 19.7071C17.5196 19.8946 17.2652 20 17 20H7C6.73478 20 6.48043 19.8946 6.29289 19.7071C6.10536 19.5196 6 19.2652 6 19V13C6 12.7348 6.10536 12.4804 6.29289 12.2929C6.48043 12.1054 6.73478 12 7 12H17C17.2652 12 17.5196 12.1054 17.7071 12.2929C17.8946 12.4804 18 12.7348 18 13V19Z" fill="#393A3D"/>
<path id="Vector_2" d="M12 13C11.5604 12.9989 11.1328 13.1431 10.7836 13.4101C10.4345 13.6772 10.1833 14.0521 10.0693 14.4766C9.95521 14.9011 9.98463 15.3514 10.1529 15.7575C10.3213 16.1636 10.619 16.5027 11 16.722V18C11 18.2652 11.1053 18.5196 11.2929 18.7071C11.4804 18.8946 11.7348 19 12 19C12.2652 19 12.5195 18.8946 12.7071 18.7071C12.8946 18.5196 13 18.2652 13 18V16.723C13.3814 16.5039 13.6797 16.1648 13.8483 15.7585C14.017 15.3522 14.0466 14.9016 13.9325 14.4767C13.8184 14.0519 13.567 13.6767 13.2174 13.4096C12.8679 13.1425 12.4399 12.9985 12 13Z" fill="#393A3D"/>
</g>
</svg>
