<svg width="24" height="24" viewBox="0 0 24 24" fill="none" xmlns="http://www.w3.org/2000/svg">
<g id="zoom-out">
<path id="Vector" d="M21.7 20.3L16.31 14.91C17.5747 13.2955 18.1763 11.2596 17.9924 9.21695C17.8084 7.17434 16.8527 5.27867 15.32 3.91605C13.7872 2.55344 11.7927 1.82636 9.74257 1.88292C7.69248 1.93948 5.74105 2.77542 4.28574 4.22047C2.83044 5.66552 1.98073 7.611 1.90969 9.66064C1.83864 11.7103 2.5516 13.7099 3.90335 15.2523C5.25511 16.7946 7.14397 17.7637 9.18523 17.9621C11.2265 18.1604 13.2666 17.5732 14.89 16.32L20.28 21.72C20.373 21.8137 20.4836 21.8881 20.6055 21.9389C20.7273 21.9897 20.858 22.0158 20.99 22.0158C21.122 22.0158 21.2527 21.9897 21.3746 21.9389C21.4965 21.8881 21.6071 21.8137 21.7 21.72C21.7938 21.627 21.8682 21.5164 21.9189 21.3946C21.9697 21.2727 21.9958 21.142 21.9958 21.01C21.9958 20.878 21.9697 20.7473 21.9189 20.6254C21.8682 20.5036 21.7938 20.393 21.7 20.3ZM5.75003 14.24C4.91158 13.4006 4.3408 12.3315 4.10983 11.1678C3.87886 10.0041 3.99807 8.79804 4.45239 7.70208C4.90671 6.60611 5.67575 5.66943 6.6623 5.01044C7.64885 4.35144 8.80862 3.99972 9.99503 3.99972C11.1814 3.99972 12.3412 4.35144 13.3278 5.01044C14.3143 5.66943 15.0833 6.60611 15.5377 7.70208C15.992 8.79804 16.1112 10.0041 15.8802 11.1678C15.6493 12.3315 15.0785 13.4006 14.24 14.24C13.6828 14.7979 13.0211 15.2404 12.2927 15.5424C11.5643 15.8443 10.7835 15.9997 9.99503 15.9997C9.20653 15.9997 8.42577 15.8443 7.69739 15.5424C6.969 15.2404 6.30727 14.7979 5.75003 14.24Z" fill="#393A3D"/>
<path id="Vector_2" d="M13 9H7C6.73478 9 6.48043 9.10536 6.29289 9.29289C6.10536 9.48043 6 9.73478 6 10C6 10.2652 6.10536 10.5196 6.29289 10.7071C6.48043 10.8946 6.73478 11 7 11H13C13.2652 11 13.5196 10.8946 13.7071 10.7071C13.8946 10.5196 14 10.2652 14 10C14 9.73478 13.8946 9.48043 13.7071 9.29289C13.5196 9.10536 13.2652 9 13 9Z" fill="#393A3D"/>
</g>
</svg>
