<svg width="300" height="300" viewBox="0 0 300 300" fill="none" xmlns="http://www.w3.org/2000/svg">
<circle cx="147" cy="134" r="129" fill="#0077C5"/>
<path d="M113.662 297C142.03 297 156.165 262.278 132.348 256.065C113.662 249.486 109.263 233.405 109.263 223.535C109.263 200.696 130.935 187.413 150.669 189.021L147.737 222.073C149.726 220.001 165.326 202.336 170.089 196.763C176.714 202.39 181.384 211.17 182.181 223.535C183.435 242.996 167.524 253.871 161.662 258.257C155.799 262.643 146.64 297 195.741 297C235.022 297 232.628 249.729 226.521 226.093C217.971 198.559 199.845 139.835 195.741 125.215C214.795 109.864 198.306 89.7615 180.351 104.747C151.624 88.3727 123.922 96.0976 113.662 102.92C107.799 99.2652 97.2464 97.4377 93.1425 106.21C89.0386 114.982 95.5853 122.047 100.471 125.215C89.7225 163.471 72.9855 220.465 70.0538 231.576C63.0142 258.257 73.2424 297 113.662 297Z" fill="white"/>
<path d="M150.669 189.021C130.935 187.413 109.263 200.696 109.263 223.535C109.263 233.405 113.662 249.486 132.348 256.065C156.165 262.278 142.03 297 113.662 297C73.2424 297 63.0142 258.257 70.0538 231.576C72.9855 220.465 89.7225 163.471 100.471 125.215C95.5853 122.047 89.0386 114.982 93.1425 106.21C97.2464 97.4377 107.799 99.2652 113.662 102.92C123.922 96.0976 151.624 88.3727 180.351 104.747C198.306 89.7615 214.795 109.864 195.741 125.215C199.845 139.835 217.971 198.559 226.521 226.093C232.628 249.729 235.022 297 195.741 297C146.64 297 155.799 262.643 161.662 258.257C167.524 253.871 183.435 242.996 182.181 223.535C181.384 211.17 176.714 202.39 170.089 196.763C165.326 202.336 149.726 220.001 147.737 222.073M150.669 189.021C149.65 200.509 148.742 210.743 147.737 222.073M150.669 189.021L147.737 222.073" stroke="#0077C5" stroke-width="3"/>
<ellipse cx="174.5" cy="127" rx="2.5" ry="3" fill="black"/>
<path d="M154 129.333C154 131.992 148.642 136 146.462 136C144.281 136 140 131.992 140 129.333C140 126.674 144.281 126 146.462 126C148.642 126 154 126.674 154 129.333Z" fill="black"/>
<ellipse cx="121.5" cy="127" rx="2.5" ry="3" fill="black"/>
</svg>
