<svg id="Layer_1" data-name="Layer 1" xmlns="http://www.w3.org/2000/svg" viewBox="0 0 113.92 122.88"><defs><style>.cls-1{fill:#4ba042;fill-rule:evenodd;}.cls-2{fill:#212121;}.cls-3{fill:#fff;}</style></defs><title>proposal</title><path class="cls-1" d="M86.18,67.4A27.74,27.74,0,1,1,58.44,95.14,27.74,27.74,0,0,1,86.18,67.4Z"/><path class="cls-2" d="M46.4,104.45a2.82,2.82,0,1,1,0,5.64H6.57A6.57,6.57,0,0,1,0,103.53v-97A6.55,6.55,0,0,1,1.93,1.93,6.5,6.5,0,0,1,6.57,0H87.22a6.59,6.59,0,0,1,6.57,6.57V56a2.83,2.83,0,1,1-5.65,0V6.57a.9.9,0,0,0-.27-.65.94.94,0,0,0-.65-.28H6.57a1,1,0,0,0-.66.27,1,1,0,0,0-.26.66v96.95a.88.88,0,0,0,.27.64,1,1,0,0,0,.66.28H46.4ZM23.79,65V59.3H65.51V65Zm0-18.57V40.74H70v5.64Zm0-18.56V22.17H70v5.65Zm0,55.76V77.87H48.88v5.71Z"/><path class="cls-3" d="M70.14,93.29l5.66-.08.42.11a22.06,22.06,0,0,1,3.23,2.27,21.81,21.81,0,0,1,2.08,2,81,81,0,0,1,6.48-9A77.13,77.13,0,0,1,96,80.3l.55-.21h6.18l-1.25,1.38A132,132,0,0,0,91,94.65a129.25,129.25,0,0,0-8.44,14l-.77,1.5-.72-1.52a36.74,36.74,0,0,0-4.77-7.74,31.23,31.23,0,0,0-6.62-6.13l.46-1.51Z"/></svg>